<svg version="1.2" xmlns="http://www.w3.org/2000/svg" viewBox="0 0 1526 388" width="1526" height="388">
	<title>logo-light-svg</title>
	<style>
		.s0 { fill: #F8F9FA } 
		.s1 { fill: #ea2985 } 
	</style>
	<path id="Layer" fill-rule="evenodd" class="s0" d="m3.4 329.6q-1.8-3.7-2.6-7.1-0.8-3.5-0.8-6.7 0-5.5 2.4-10 2.4-4.5 6.1-7.8 3.6-3.4 8.1-5.1 4.5-1.7 8.6-1.7 5.9 0 11.6 3.9 5.6 3.9 11.5 11.3 9.9 14.5 24.9 22.5 15 8.1 35.1 8.1 9.9 0 19.5-2.7 9.6-2.6 17.2-7.7 7.6-5 12.1-12.4 4.6-7.4 4.6-16.8 0-10.3-4.7-16.8-4.7-6.4-12.1-10.5-7.5-4-16.7-6.4c-6.2-1.6-12.4-3.1-18.5-4.5q-22.4-4.1-41.2-11.3-18.8-7.1-32.4-17.9-13.7-10.8-21.3-25.6-7.7-14.9-7.7-34.2c0-12.9 2.8-25 8.3-35.9q8.2-16.3 22-28c9.1-7.9 19.7-14 31.8-18.3q18.1-6.6 37.8-6.6 14 0 27.5 2.9 13.5 2.9 25.4 8.4 11.9 5.5 21.7 13.8 9.7 8.3 16.1 19.3 2.6 4.4 2.6 9.7-0.1 4.8-1.9 9-1.8 4.3-4.9 7.5-3.1 3.2-7.6 5.1-4.4 1.8-9.5 1.8-8 0-15.1-5-6.4-5.6-12-9.6-5.5-4-11.6-6.7-6-2.6-13.3-3.9-7.2-1.2-16.8-1.2-10.4 0-19.4 2.6-9.1 2.7-15.9 7.6-6.7 5-10.5 11.9-3.8 6.9-3.8 15.4 0 9.9 5.1 16.2 5.2 6.3 14.3 10.6 9.1 4.2 21.3 7.2 12.3 3 26.8 6.2 16.3 4.1 32 10.5 15.6 6.3 27.9 16.1 12.3 9.7 19.7 23.9c5 9.4 7.5 20.8 7.5 34.1 0 13.4-2.7 25.5-8.2 36.8q-8.1 17.1-22.4 29.6c-9.5 8.4-20.7 14.9-33.6 19.7q-19.4 7.1-41.9 7.1-17.6 0-33.9-4.6-16.2-4.6-29.7-12.5-13.6-8-23.7-18.5-10.2-10.6-15.7-22.8zm242.2-210.2q0-5.6 2-10.3 2.1-4.7 5.6-8.1c2.4-2.3 5.1-4.2 8.2-5.6q4.5-2 9.8-2 5.3 0 10.1 1.9 4.8 2 8.5 5.5 3.6 3.6 5.8 8.3 2.2 4.7 2.2 10.3v37h80.4q5.3 0 10 2.1 4.7 2 8.1 5.5 3.4 3.4 5.5 8.2 2.1 4.7 2.1 10c0 3.5-0.7 6.5-2.1 9.5q-2.1 4.5-5.5 7.8-3.4 3.4-8.1 5.3-4.7 2-10 1.9h-80.4v67.2q0 12.7 4.6 23.6 4.6 10.9 12.6 19.1 8 8.1 18.9 12.7 10.9 4.6 23.7 4.6 11.2 0 20.8-3.2 9.7-3.2 17.9-10.3 4.6-4 9-6.4 4.3-2.4 10.3-2.4 4.3 0 8.4 1.9c2.8 1.2 5.2 2.9 7.4 5.1q3.2 3.4 5.1 7.9 2 4.5 2 9.5 0 6-2.3 11.5-2.3 5.5-6.9 9.9-14.4 13.8-32.6 20.7-18.2 6.9-39.1 6.9-23.4 0-43.7-8.7-20.4-8.6-35.5-23.7-15.2-15-24-35.4-8.8-20.3-8.8-43.8v-154zm318.9 265.4q-22.9 0-43.2-8.9-20.3-8.8-35.4-24-15.1-15.2-23.9-35.5-8.8-20.4-8.8-43.6 0-23.2 8.8-43.7 8.8-20.5 23.9-35.8 15.2-15.3 35.4-24.1 20.3-8.9 43.2-8.9c15.3 0 29.9 3 43.4 8.9q20.3 8.8 35.4 24.1 15.1 15.3 23.8 35.8 8.7 20.5 8.7 43.7v85.3q0 5.5-2 10.3-2.1 4.7-5.5 8.2-3.5 3.6-8.2 5.7-4.7 2-10.2 2-9.1 0-15.4-5c-4.3-3.4-7.1-7.8-8.6-13.1q-13.3 8.7-28.8 13.7-15.4 4.9-32.6 4.9zm-0.1-51.1q12.6 0 23.7-4.8 11.1-4.8 19.3-13.1c5.4-5.5 9.7-11.9 12.9-19.3q4.7-11 4.7-23.7 0-12.6-4.7-23.7c-3.2-7.4-7.5-13.8-12.9-19.3q-8.1-8.3-19.3-13-11.1-4.7-23.7-4.7c-8.5 0-16.1 1.5-23.4 4.7q-11.1 4.7-19.3 13-8.3 8.3-13 19.3-4.7 11-4.7 23.7 0 12.7 4.7 23.7 4.7 11 12.9 19.3 8.1 8.3 19.1 13.1 11 4.8 23.7 4.8zm152.6-55.7q0-24.2 9.3-45.7 9.3-21.6 25.2-37.6 15.9-16 37.2-25.3c14-6.1 80.5-11.2 97.6-11.4v-38.6q0-5.5 2.1-10.3 2-4.7 5.6-8.1c2.3-2.3 5.1-4.1 8.1-5.5q4.6-2.1 9.9-2.1 5.2 0 10 1.9 4.9 2 8.5 5.6 3.7 3.5 5.9 8.2 2.1 4.8 2.1 10.3v37h80.4q5.3 0 10 2.1 4.7 2 8.1 5.5 3.5 3.5 5.5 8.2 2.1 4.7 2.1 10c0 3.5-0.7 6.5-2.1 9.5q-2 4.5-5.5 7.8-3.4 3.4-8.1 5.3c-3.1 1.3-6.4 2-10 2h-80.4v67.1q0 12.7 4.6 23.6 4.6 10.9 12.6 19.1 8 8.2 18.9 12.8 10.9 4.5 23.8 4.5 11.2 0 20.8-3.2 9.6-3.2 17.9-10.3 4.5-3.9 8.9-6.3 4.3-2.4 10.3-2.4 4.4-0.1 8.5 1.8c2.7 1.2 5.2 2.9 7.3 5.2q3.2 3.3 5.2 7.8 1.9 4.5 1.9 9.5 0 6-2.3 11.5-2.3 5.6-6.8 9.9-14.5 13.8-32.7 20.7-18.2 6.9-39 6.9-23.4 0-43.8-8.6-20.4-8.7-35.5-23.7-15.1-15.1-23.9-35.5-8.9-20.3-8.9-43.8v-64.3c-8.7 0.1-69.9 4-77.8 7.5q-11.8 5.1-20.7 14-8.9 8.8-14.3 20.6-5.4 11.7-5.6 25.3v80.5q0 5.3-2 9.9-1.9 4.6-5.2 8-3.4 3.5-7.9 5.4-4.6 2-9.7 2c-3.3 0-6.8-0.7-9.9-2-3.2-1.3-6-3.1-8.4-5.4q-3.7-3.4-5.7-8-2.1-4.6-2.1-9.9v-79zm433.2 17.9q0-0.1 0-0.1zm8.5 16.1q5.5 7.4 12.7 12.7 7.2 5.3 16 8.3 8.9 2.9 18.5 2.9 10.3 0 16.9-1.7 6.7-1.7 12.6-5.4c5.5-3.2 10.5-4.8 14.9-4.8q5.3 0 9.9 2.2 4.6 2.1 7.9 5.8 3.3 3.7 5.3 8.5 1.9 4.9 1.9 9.9 0 7.8-5 14.3-5.1 6.4-14.2 10.9-9.2 4.5-22 6.9-12.8 2.4-28.2 2.4-23.1 0-43.6-8.8-20.5-8.9-35.9-24.1-15.3-15.2-24.1-35.5-8.9-20.4-8.9-43.6c0-15.4 3-30.3 8.9-43.9q8.8-20.5 24.1-35.6 15.4-15.2 35.9-24.1c13.6-5.9 28.2-8.8 43.6-8.8 15.4 0 29.7 2.9 43.2 8.7q20.3 8.7 35.5 23.7 15.2 14.9 24.3 35.3 9 20.3 9.5 43.3 0 11.1-7 17.8c-4.7 4.4-10.7 6.6-18 6.6h-143.2q3 8.8 8.5 16.1zm107.4-58.9q-2.7-9.6-8.3-17.7-5.6-8-13.3-13.9-7.7-5.9-17.3-9.1-9.6-3.2-20.4-3.2-10.8 0-20.3 3.4c-6.3 2.3-12 5.4-17 9.4q-7.6 5.8-13 13.9-5.4 8-7.9 17.2zm131.9 42.6v61.6q0 5.3-1.9 9.9-2 4.6-5.4 7.9-3.5 3.4-8.1 5.3-4.6 2-9.6 2c-3.4 0-6.9-0.7-10-2q-4.8-1.9-8.2-5.3-3.4-3.3-5.5-7.9-2.1-4.6-2.1-9.9v-251.4q0-5.3 2.1-9.9 2.1-4.5 5.6-7.9 3.6-3.3 8.2-5.3 4.6-1.9 9.9-1.9 5.3 0 9.9 1.9 4.6 2 8 5.3 3.5 3.3 5.4 7.9 2 4.6 2 9.9l-0.2 132.5 73.3-67.8q3.6-3.5 7.8-5.1 4.1-1.6 8.6-1.6 5.1 0 9.9 2.1 4.8 2 8.5 5.5 3.6 3.4 5.8 8.2 2.2 4.7 2.2 9.7 0 5.1-2.1 9.8-2 4.7-5.9 8.4l-64.4 59.6 77.2 72q6.9 6.7 6.9 16.3 0 5.3-2.1 10-2 4.8-5.5 8.4-3.4 3.7-7.9 5.9-4.5 2.2-9.5 2.2-5-0.2-10-2.1-4.9-1.8-8.8-5.7l-84-78.5z"/>
	<path id="Layer" class="s1" d="m797.9 106q-13 20.5-32.3 33.6-19.4 13.2-41.4 18.1-22 4.8-45 1.2c-15.3-2.4-75.5-34.8-89-43.5l-0.4-0.3q-10.6-6.8-12.6-16.5-2-9.8 4-19.1c2-3.2 4.4-5.7 7.2-7.6 2.9-1.9 5.9-3.2 9.1-3.8q4.8-0.9 9.9 0 5.1 1 9.7 3.9l1 0.7c7.4 4.6 61.2 34.4 69.6 35.7q12.8 2 25.1-0.6 12.3-2.7 23.1-9.7 10.8-7 18.3-18.3l43.2-67.9q2.8-4.5 6.9-7.3 4.1-2.8 8.8-4 4.6-1.1 9.5-0.2 4.9 0.8 9.2 3.5 4.4 2.9 7.3 7 3 4.2 4.2 9.1 1.2 4.9 0.5 9.9-0.7 5-3.5 9.5z"/>
</svg>